<svg width="45" height="29" viewBox="0 0 45 29" fill="none" xmlns="http://www.w3.org/2000/svg">
<g clip-path="url(#clip0_1_1868)">
<g filter="url(#filter0_d_1_1868)">
<path d="M0 5C0 2.23858 2.23858 0 5 0H40C42.7614 0 45 2.23858 45 5V24C45 26.7614 42.7614 29 40 29H5C2.23858 29 0 26.7614 0 24V5Z" fill="white"/>
</g>
<path d="M26.8894 11.3587C26.9115 11.1798 26.923 10.9977 26.923 10.8128C26.923 9.25937 25.6636 8 24.1101 8H19.4092C19.1135 8 18.8611 8.21354 18.812 8.50512L17.0799 18.8004C17.0177 19.1698 17.3025 19.5065 17.6771 19.5065H19.3963C19.692 19.5065 19.9492 19.2931 19.9982 19.0015C19.9982 19.0015 20.0011 18.9844 20.0063 18.9536H20.0063L19.7667 20.3777C19.712 20.7033 19.963 21 20.2931 21H21.7972C22.0578 21 22.2803 20.8118 22.3236 20.5548L22.7509 18.0152C22.8245 17.5774 23.2035 17.2569 23.6474 17.2569H24.0426C26.1888 17.2569 27.9287 15.517 27.9287 13.3707C27.9287 12.5402 27.5182 11.8061 26.8894 11.3587Z" fill="#002987"/>
<path d="M26.8894 11.3584C26.6204 13.5465 24.7555 15.2409 22.4947 15.2409H21.1829C20.8868 15.2409 20.6311 15.4381 20.5509 15.7169L19.7667 20.3774C19.712 20.703 19.963 20.9997 20.2931 20.9997H21.7972C22.0578 20.9997 22.2803 20.8115 22.3236 20.5545L22.7509 18.0149C22.8245 17.5771 23.2035 17.2566 23.6474 17.2566H24.0426C26.1888 17.2566 27.9287 15.5167 27.9287 13.3705C27.9287 12.54 27.5182 11.8058 26.8894 11.3584Z" fill="#0085CC"/>
<path d="M21.1829 15.2413H22.4947C24.7555 15.2413 26.6205 13.5469 26.8894 11.3588C26.486 11.0717 25.993 10.9023 25.4602 10.9023H22.0363C21.6464 10.9023 21.3136 11.1838 21.2489 11.5683L20.5508 15.7173C20.631 15.4384 20.8868 15.2413 21.1829 15.2413Z" fill="#00186A"/>
</g>
<defs>
<filter id="filter0_d_1_1868" x="-15" y="-14" width="75" height="59" filterUnits="userSpaceOnUse" color-interpolation-filters="sRGB">
<feFlood flood-opacity="0" result="BackgroundImageFix"/>
<feColorMatrix in="SourceAlpha" type="matrix" values="0 0 0 0 0 0 0 0 0 0 0 0 0 0 0 0 0 0 127 0" result="hardAlpha"/>
<feOffset dy="1"/>
<feGaussianBlur stdDeviation="7.5"/>
<feColorMatrix type="matrix" values="0 0 0 0 0 0 0 0 0 0 0 0 0 0 0 0 0 0 0.1 0"/>
<feBlend mode="normal" in2="BackgroundImageFix" result="effect1_dropShadow_1_1868"/>
<feBlend mode="normal" in="SourceGraphic" in2="effect1_dropShadow_1_1868" result="shape"/>
</filter>
<clipPath id="clip0_1_1868">
<rect width="45" height="29" fill="white"/>
</clipPath>
</defs>
</svg>
