<svg width="41" height="29" viewBox="0 0 41 29" fill="none" xmlns="http://www.w3.org/2000/svg">
<g clip-path="url(#clip0_1_1901)">
<g filter="url(#filter0_d_1_1901)">
<path d="M0 5C0 2.23858 2.23858 0 5 0H36C38.7614 0 41 2.23858 41 5V24C41 26.7614 38.7614 29 36 29H5C2.23858 29 0 26.7614 0 24V5Z" fill="white"/>
</g>
<path fill-rule="evenodd" clip-rule="evenodd" d="M35.9144 14.7143C35.9144 12.5219 34.8525 10.792 32.8229 10.792C30.7848 10.792 29.5517 12.5219 29.5517 14.6971C29.5517 17.2749 31.0075 18.5766 33.097 18.5766C34.116 18.5766 34.8867 18.3454 35.4691 18.0199V16.3071C34.8867 16.5983 34.2188 16.7782 33.371 16.7782C32.5403 16.7782 31.8039 16.487 31.7097 15.4764H35.8972C35.8972 15.3651 35.9144 14.9198 35.9144 14.7143ZM31.684 13.9007C31.684 12.933 32.2749 12.5305 32.8144 12.5305C33.3367 12.5305 33.8934 12.933 33.8934 13.9007H31.684Z" fill="#6772E5"/>
<path fill-rule="evenodd" clip-rule="evenodd" d="M26.2461 10.792C25.4069 10.792 24.8674 11.1859 24.5677 11.46L24.4564 10.929H22.5724V20.9145L24.7133 20.4606L24.7218 18.0371C25.0301 18.2597 25.484 18.5766 26.2376 18.5766C27.7704 18.5766 29.1663 17.3434 29.1663 14.6286C29.1577 12.1451 27.7448 10.792 26.2461 10.792ZM25.7323 16.6925C25.2271 16.6925 24.9274 16.5127 24.7218 16.29L24.7133 13.1128C24.9359 12.8645 25.2442 12.6932 25.7323 12.6932C26.5116 12.6932 27.0511 13.5667 27.0511 14.6886C27.0511 15.8361 26.5202 16.6925 25.7323 16.6925Z" fill="#6772E5"/>
<path fill-rule="evenodd" clip-rule="evenodd" d="M21.776 9.82441V8.08594L19.6265 8.53982V10.2869L21.776 9.82441Z" fill="#6772E5"/>
<path d="M21.776 10.9375H19.6265V18.4309H21.776V10.9375Z" fill="#6772E5"/>
<path fill-rule="evenodd" clip-rule="evenodd" d="M17.3229 11.5719L17.1859 10.9381H15.3362V18.4315H17.4771V13.3531C17.9823 12.6937 18.8387 12.8136 19.1041 12.9078V10.9381C18.8301 10.8354 17.8282 10.647 17.3229 11.5719Z" fill="#6772E5"/>
<path fill-rule="evenodd" clip-rule="evenodd" d="M13.0412 9.0791L10.9516 9.52442L10.9431 16.3841C10.9431 17.6516 11.8936 18.585 13.161 18.585C13.8633 18.585 14.3771 18.4566 14.6597 18.3024V16.564C14.3856 16.6753 13.0326 17.0692 13.0326 15.8018V12.7616H14.6597V10.9375H13.0326L13.0412 9.0791Z" fill="#6772E5"/>
<path fill-rule="evenodd" clip-rule="evenodd" d="M7.25221 13.1128C7.25221 12.7788 7.52624 12.6504 7.98011 12.6504C8.63093 12.6504 9.45303 12.8473 10.1039 13.1984V11.1859C9.39309 10.9033 8.69088 10.792 7.98011 10.792C6.24171 10.792 5.08563 11.6998 5.08563 13.2156C5.08563 15.5792 8.33977 15.2024 8.33977 16.2215C8.33977 16.6154 7.99723 16.7439 7.51767 16.7439C6.8069 16.7439 5.89917 16.4527 5.17983 16.0588V18.097C5.97624 18.4396 6.78121 18.5851 7.51767 18.5851C9.29889 18.5851 10.5235 17.7031 10.5235 16.1701C10.5149 13.6181 7.25221 14.072 7.25221 13.1128Z" fill="#6772E5"/>
</g>
<defs>
<filter id="filter0_d_1_1901" x="-15" y="-14" width="71" height="59" filterUnits="userSpaceOnUse" color-interpolation-filters="sRGB">
<feFlood flood-opacity="0" result="BackgroundImageFix"/>
<feColorMatrix in="SourceAlpha" type="matrix" values="0 0 0 0 0 0 0 0 0 0 0 0 0 0 0 0 0 0 127 0" result="hardAlpha"/>
<feOffset dy="1"/>
<feGaussianBlur stdDeviation="7.5"/>
<feColorMatrix type="matrix" values="0 0 0 0 0 0 0 0 0 0 0 0 0 0 0 0 0 0 0.1 0"/>
<feBlend mode="normal" in2="BackgroundImageFix" result="effect1_dropShadow_1_1901"/>
<feBlend mode="normal" in="SourceGraphic" in2="effect1_dropShadow_1_1901" result="shape"/>
</filter>
<clipPath id="clip0_1_1901">
<rect width="41" height="29" fill="white"/>
</clipPath>
</defs>
</svg>
