<svg width="45" height="29" viewBox="0 0 45 29" fill="none" xmlns="http://www.w3.org/2000/svg">
<g clip-path="url(#clip0_1_1913)">
<g filter="url(#filter0_d_1_1913)">
<path d="M0 5C0 2.23858 2.23858 0 5 0H40C42.7614 0 45 2.23858 45 5V24C45 26.7614 42.7614 29 40 29H5C2.23858 29 0 26.7614 0 24V5Z" fill="white"/>
</g>
<path d="M25.6387 10.2646H20.3628V18.7333H25.6387V10.2646Z" fill="#FF5F00"/>
<path d="M20.9062 14.5C20.9056 13.6845 21.0937 12.8796 21.4563 12.1461C21.8189 11.4127 22.3465 10.7699 22.9992 10.2664C22.1908 9.642 21.22 9.25373 20.1976 9.14596C19.1753 9.03818 18.1428 9.21525 17.218 9.65692C16.2932 10.0986 15.5135 10.787 14.9681 11.6436C14.4226 12.5002 14.1333 13.4903 14.1333 14.5007C14.1333 15.5112 14.4226 16.5013 14.9681 17.3579C15.5135 18.2144 16.2932 18.9029 17.218 19.3446C18.1428 19.7862 19.1753 19.9633 20.1976 19.8555C21.22 19.7477 22.1908 19.3595 22.9992 18.7351C22.3463 18.2315 21.8186 17.5884 21.4559 16.8547C21.0933 16.1209 20.9053 15.3157 20.9062 14.5Z" fill="#EB001B"/>
<path d="M31.3423 17.8374V17.6638H31.4184V17.6279H31.2373V17.6638H31.3088V17.8374H31.3423ZM31.694 17.8374V17.6279H31.6392L31.5752 17.7775L31.5113 17.6279H31.4565V17.8374H31.4961V17.6788L31.5554 17.8149H31.5965L31.6559 17.6788V17.8374H31.694Z" fill="#F79E1B"/>
<path d="M31.866 14.5002C31.8659 15.5107 31.5766 16.5009 31.031 17.3575C30.4855 18.214 29.7057 18.9025 28.7808 19.3441C27.8559 19.7857 26.8232 19.9627 25.8008 19.8547C24.7785 19.7468 23.8076 19.3583 22.9992 18.7338C23.6517 18.2298 24.1792 17.5869 24.5419 16.8533C24.9046 16.1198 25.093 15.3149 25.093 14.4994C25.093 13.6839 24.9046 12.879 24.5419 12.1455C24.1792 11.412 23.6517 10.769 22.9992 10.2651C23.8076 9.64048 24.7785 9.25202 25.8008 9.14409C26.8232 9.03616 27.8559 9.21311 28.7808 9.65472C29.7057 10.0963 30.4855 10.7848 31.031 11.6414C31.5766 12.4979 31.8659 13.4881 31.866 14.4987V14.5002Z" fill="#F79E1B"/>
</g>
<defs>
<filter id="filter0_d_1_1913" x="-15" y="-14" width="75" height="59" filterUnits="userSpaceOnUse" color-interpolation-filters="sRGB">
<feFlood flood-opacity="0" result="BackgroundImageFix"/>
<feColorMatrix in="SourceAlpha" type="matrix" values="0 0 0 0 0 0 0 0 0 0 0 0 0 0 0 0 0 0 127 0" result="hardAlpha"/>
<feOffset dy="1"/>
<feGaussianBlur stdDeviation="7.5"/>
<feColorMatrix type="matrix" values="0 0 0 0 0 0 0 0 0 0 0 0 0 0 0 0 0 0 0.1 0"/>
<feBlend mode="normal" in2="BackgroundImageFix" result="effect1_dropShadow_1_1913"/>
<feBlend mode="normal" in="SourceGraphic" in2="effect1_dropShadow_1_1913" result="shape"/>
</filter>
<clipPath id="clip0_1_1913">
<rect width="45" height="29" fill="white"/>
</clipPath>
</defs>
</svg>
