<svg width="45" height="29" viewBox="0 0 45 29" fill="none" xmlns="http://www.w3.org/2000/svg">
<g clip-path="url(#clip0_1_1897)">
<g filter="url(#filter0_d_1_1897)">
<path d="M0 5C0 2.23858 2.23858 0 5 0H40C42.7614 0 45 2.23858 45 5V24C45 26.7614 42.7614 29 40 29H5C2.23858 29 0 26.7614 0 24V5Z" fill="white"/>
</g>
<path d="M33.2083 8.4165L32.3376 10.4488H34.0837L33.2083 8.4165ZM23.1612 9.67585C23.3253 9.59338 23.4219 9.41398 23.4219 9.19121C23.4219 8.97289 23.3204 8.81479 23.1563 8.74049C23.0068 8.65813 22.7769 8.64862 22.5564 8.64862H20.9987V9.78095H22.5355C22.7816 9.78101 22.9873 9.77753 23.1612 9.67585ZM3.20136 8.4165L2.34053 10.4488H4.06738L3.20136 8.4165ZM43.2802 21.4358H40.8373V20.3423H43.2703C43.5116 20.3423 43.6805 20.3119 43.7822 20.216C43.8784 20.1306 43.9327 20.0098 43.9317 19.8836C43.9317 19.735 43.8705 19.617 43.7771 19.5464C43.6855 19.4686 43.5517 19.4331 43.3314 19.4331C42.1436 19.3943 40.6618 19.4685 40.6618 17.8549C40.6618 17.1154 41.1493 16.3369 42.4768 16.3369H44.9967V15.3224H42.6555C41.949 15.3224 41.4357 15.4854 41.0723 15.7389V15.3224H37.6095C37.0558 15.3224 36.4058 15.4546 36.0984 15.7389V15.3224H29.9144V15.7389C29.4223 15.3969 28.5918 15.3224 28.2087 15.3224H24.1298V15.7389C23.7405 15.3757 22.8745 15.3224 22.347 15.3224H17.7819L16.7375 16.4113L15.7591 15.3224H8.93984V22.4378H15.6304L16.7067 21.3314L17.7206 22.4378L21.8447 22.4413V20.7675H22.2503C22.7974 20.776 23.4428 20.7546 24.0123 20.5175V22.4376H27.414V20.583H27.578C27.7873 20.583 27.8081 20.5915 27.8081 20.793V22.4372H38.142C38.798 22.4372 39.4839 22.2756 39.8636 21.9817V22.4372H43.1415C43.8235 22.4372 44.4897 22.3451 44.9965 22.1093V20.7838C44.6893 21.2166 44.0903 21.4361 43.2801 21.4361L43.2802 21.4358ZM22.3044 19.7557H20.726V21.466H18.2672L16.7096 19.7781L15.0908 21.466H10.08V16.367H15.1679L16.7242 18.0384L18.3332 16.367H22.3754C23.3793 16.367 24.5072 16.6348 24.5072 18.0468C24.5072 19.4633 23.4102 19.7557 22.3044 19.7557ZM29.8944 19.5245C30.0731 19.7734 30.0989 20.0057 30.1041 20.4552V21.466H28.8339V20.8282C28.8339 20.5214 28.8647 20.0671 28.6295 19.83C28.4449 19.6474 28.163 19.6038 27.7013 19.6038H26.3495V21.466H25.0785V16.367H27.9988C28.6395 16.367 29.1058 16.3945 29.521 16.6076C29.9202 16.84 30.1715 17.1583 30.1715 17.7399C30.1714 18.5537 29.6079 18.9689 29.2749 19.0965C29.5563 19.1966 29.7864 19.376 29.8944 19.5245ZM35.1199 17.4215H32.1576V18.3485H35.0475V19.3889H32.1576V20.4034L35.1199 20.4079V21.466H30.8979V16.367H35.1199V17.4215ZM38.3705 21.4659H35.9068V20.3725H38.3607C38.6007 20.3725 38.7709 20.3419 38.8775 20.2462C38.9644 20.1674 39.027 20.0527 39.027 19.9138C39.027 19.7651 38.9592 19.6472 38.8726 19.5764C38.7758 19.4987 38.6422 19.4635 38.4221 19.4635C37.239 19.4244 35.7575 19.4986 35.7575 17.8851C35.7575 17.1455 36.24 16.367 37.5661 16.367H40.1023V17.4521H37.7816C37.5516 17.4521 37.4021 17.4606 37.2749 17.5445C37.1362 17.6271 37.0848 17.7495 37.0848 17.9112C37.0848 18.1035 37.2025 18.2345 37.3616 18.291C37.4951 18.3357 37.6383 18.3488 37.8538 18.3488L38.5349 18.3667C39.2214 18.3825 39.693 18.4972 39.9795 18.7766C40.2256 19.0221 40.3579 19.3322 40.3579 19.8569C40.3578 20.9538 39.6463 21.4659 38.3705 21.4659ZM28.5594 17.5038C28.4066 17.4163 28.181 17.4117 27.9559 17.4117H26.3981V18.5568H27.935C28.1811 18.5568 28.3903 18.5484 28.5594 18.4517C28.7233 18.3563 28.8215 18.1804 28.8215 17.9623C28.8215 17.7442 28.7233 17.5864 28.5594 17.5038ZM42.6934 17.4115C42.4633 17.4115 42.3103 17.42 42.1815 17.5037C42.048 17.5864 41.9968 17.7088 41.9968 17.8706C41.9968 18.0628 42.1095 18.1937 42.2734 18.2504C42.4069 18.2951 42.5501 18.3082 42.7607 18.3082L43.4465 18.3257C44.1383 18.3423 44.6003 18.4569 44.8819 18.7364C44.9332 18.7751 44.964 18.8187 44.9992 18.8625V17.4117H42.6935L42.6934 17.4115ZM22.3482 17.4115H20.6988V18.7102H22.3336C22.8196 18.7102 23.1218 18.4779 23.1221 18.0368C23.1218 17.5909 22.8049 17.4115 22.3482 17.4115ZM11.34 17.4115V18.3386H14.117V19.379H11.34V20.3934H14.4501L15.8951 18.8976L14.5115 17.4115H11.34ZM19.4613 20.9773V16.8894L17.5191 18.9005L19.4613 20.9773ZM11.4461 12.7906V13.6692H22.0148L22.0099 11.8105H22.2144C22.3576 11.8154 22.3993 11.8281 22.3993 12.0558V13.6693H27.8655V13.2365C28.3064 13.4641 28.9921 13.6693 29.8944 13.6693H32.1941L32.6862 12.537H33.7774L34.2586 13.6693H38.69V12.5937L39.3609 13.6692H42.9122V6.55957H39.3979V7.39924L38.9058 6.55957H35.2996V7.39924L34.8477 6.55957H29.9765C29.161 6.55957 28.4445 6.66919 27.8655 6.97473V6.55957H24.5038V6.97473C24.1354 6.65979 23.6333 6.55957 23.0753 6.55957H10.7943L9.97034 8.39597L9.12411 6.55957H5.25601V7.39924L4.83099 6.55957H1.53214L0.000240798 9.94004V12.6441L2.26547 7.54621H4.14503L6.29638 12.3728V7.54621H8.36113L10.0166 11.0045L11.5375 7.54621H13.6437V12.6441H12.347L12.3423 8.65152L10.5079 12.6441H9.39722L7.55816 8.64798V12.6441H4.98509L4.49903 11.507H1.86514L1.37407 12.6441H0.000183105V13.6696H2.16168L2.64901 12.5373H3.7402L4.22626 13.6696H8.47893V12.8039L8.85849 13.6732H11.0661L11.4458 12.7908L11.4461 12.7906ZM28.1002 8.14042C28.5089 7.73355 29.1495 7.54592 30.0212 7.54592H31.2458V8.63823H30.0469C29.5854 8.63823 29.3245 8.70435 29.0735 8.9403C28.8578 9.1549 28.7098 9.56067 28.7098 10.095C28.7098 10.6411 28.8226 11.0349 29.0576 11.2921C29.2524 11.4939 29.6064 11.5551 29.9393 11.5551H30.5077L32.2905 7.54609H34.1858L36.3276 12.3679V7.54615H38.2537L40.4773 11.0965V7.54615H41.7731V12.6438H39.9805L37.5827 8.81768V12.6438H35.0064L34.5142 11.5067H31.8863L31.4087 12.6438H29.9283C29.3135 12.6438 28.535 12.5129 28.0941 12.08C27.6495 11.6472 27.4183 11.0608 27.4183 10.1339C27.4181 9.37773 27.5562 8.68661 28.1002 8.14042ZM25.4982 7.54598H26.7889V12.6438H25.4982V7.54598ZM19.6787 7.54598H22.5883C23.2346 7.54598 23.7112 7.56251 24.1202 7.79016C24.5203 8.01787 24.7603 8.35032 24.7603 8.91884C24.7603 9.73171 24.197 10.1516 23.8691 10.2777C24.1457 10.3792 24.3823 10.5585 24.495 10.707C24.6736 10.9606 24.7043 11.187 24.7043 11.6423V12.6438H23.4285L23.4237 12.0009C23.4237 11.6941 23.4541 11.2529 23.224 11.0078C23.0392 10.8286 22.7574 10.7896 22.3019 10.7896H20.9439V12.6438H19.6789L19.6787 7.54598ZM14.5791 7.54598H18.8051V8.60755H15.8443V9.52645H18.734V10.5714H15.8443V11.5895H18.8051V12.6438H14.5791V7.54598Z" fill="#2557D6"/>
</g>
<defs>
<filter id="filter0_d_1_1897" x="-15" y="-14" width="75" height="59" filterUnits="userSpaceOnUse" color-interpolation-filters="sRGB">
<feFlood flood-opacity="0" result="BackgroundImageFix"/>
<feColorMatrix in="SourceAlpha" type="matrix" values="0 0 0 0 0 0 0 0 0 0 0 0 0 0 0 0 0 0 127 0" result="hardAlpha"/>
<feOffset dy="1"/>
<feGaussianBlur stdDeviation="7.5"/>
<feColorMatrix type="matrix" values="0 0 0 0 0 0 0 0 0 0 0 0 0 0 0 0 0 0 0.1 0"/>
<feBlend mode="normal" in2="BackgroundImageFix" result="effect1_dropShadow_1_1897"/>
<feBlend mode="normal" in="SourceGraphic" in2="effect1_dropShadow_1_1897" result="shape"/>
</filter>
<clipPath id="clip0_1_1897">
<rect width="45" height="29" fill="white"/>
</clipPath>
</defs>
</svg>
